<svg enable-background="new 0 0 140 140" height="512" viewBox="0 0 140 140" width="512" xmlns="http://www.w3.org/2000/svg"><circle cx="70" cy="70" fill="#de594e" r="64"/><path d="m106.1273499 40.3440552c-.1000366-.1199951-.210022-.2399902-.3099976-.3599854-.3599854-.4200439-.710022-.8400269-1.0800171-1.25-.1199951-.1300049-.25-.2600098-.3699951-.3900146-.3599854-.3900146-.7299805-.7800293-1.0999756-1.1600342-.1400146-.1299438-.2800293-.2699585-.4200439-.3999634-.3699951-.3599854-.7399902-.7200317-1.1199951-1.0700073-.1599731-.1400146-.3099976-.2800293-.4699707-.4199829-.3800049-.3300171-.75-.6600342-1.1400146-.9800415-.1699829-.1499634-.3499756-.289978-.5300293-.4299927-.3699951-.2999878-.75-.5999756-1.1399536-.8900146-.1900024-.1499634-.3900146-.289978-.5900269-.4399414-.3800049-.2700195-.75-.5400391-1.1400146-.8100605-.2199707-.1499634-.4400024-.289978-.6599731-.4399414-.3800049-.2400513-.75-.4800415-1.1300049-.7200317-.2399902-.1400146-.4899902-.289978-.7299805-.4299927-.3699951-.2200317-.7399902-.4299927-1.1100464-.6400146-.2699585-.1499634-.539978-.289978-.8099976-.4299927-.3699951-.1900024-.7299805-.3800049-1.0899658-.5599976-.2999878-.1400146-.5900269-.2800293-.8900146-.4099731-.3499756-.1700439-.7000122-.3300171-1.0599976-.4800415-.3200073-.1400146-.6500244-.2699585-.9699707-.3999634-.3200073-.1300049-.6500244-.2600098-.9700317-.3900146-.0700073-.0300293-.1500244-.0499878-.2199707-.0800171-.25-.0899658-.5-.1799927-.7600098-.2700195-.1500244-.0499878-.2900391-.0999756-.4400024-.1499634-.1300049-.0499878-.2600098-.1000366-.3900146-.1400146-.1199951-.039978-.2399902-.0700073-.3599854-.1099854-.2999878-.0900269-.6000366-.1799927-.8900146-.2700195-.2600098-.0800171-.5100098-.1599731-.7700195-.2299805-.1099854-.0300293-.2299805-.0499878-.3399658-.0900269-.0100098 0-.0100098 0-.0100098 0-.3099976-.0799561-.6300049-.1599731-.9400024-.2399902-.25-.0599976-.5100098-.1199951-.7600098-.1799927-.1400146-.0299683-.289978-.0599976-.4299927-.0900269-.289978-.0599976-.5800171-.1199951-.8800049-.1799927-.2600098-.0499878-.5299683-.0999756-.7999878-.1499634-.1600342-.0300293-.3200073-.0499878-.4799805-.0800171-.2700195-.039978-.5400391-.0900269-.8099976-.1300049-.2900391-.039978-.5800171-.0800171-.8600464-.1099854-.1799927-.0300293-.3499756-.039978-.5199585-.0599976-.25-.0300293-.5-.0599976-.75-.0900269-.3099976-.0299683-.6300049-.0499878-.9400024-.0700073-.1700439-.0199585-.3400269-.0299683-.5100098-.039978-.0400391 0-.0800171-.0100098-.1199951-.0100098-.2000122-.0100098-.3900146-.0299683-.5900269-.039978-.3499756-.0200195-.6900024-.0200195-1.039978-.0300293h-.1000366c-.3599854-.0100098-.7199707-.0299683-1.0799561-.0299683-.3400269 0-.6700439.0199585-1.0100098.0299683h-.0499878c-.3600464 0-.7200317.0100098-1.0800171.0300293-.1900024.0100098-.3800049.0200195-.5800171.039978-.1099854 0-.2299805.0100098-.3399658.0200195-.0700073 0-.1400146 0-.2000122.0100098-.3300171.0199585-.6500244.0499878-.9799805.0799561-.2400513.0200195-.4800415.0500488-.7300415.0800171-.4500122.0499878-.8999634.1000366-1.3399658.1699829-.2600098.0300293-.5200195.0700073-.7700195.1100464-.0900269.0100098-.1799927.0199585-.2700195.039978v.0100098c-.2699547.039978-.5399742.0899658-.8099937.1400146-.4500122.0799561-.8999634.1699829-1.3399658.2699585-.2800293.0599976-.5700073.1199951-.8500366.1900024-.4299927.1000366-.8499756.210022-1.2799683.3200073-.2900391.0800171-.5800171.1600342-.8699951.25-.4100342.1199951-.8099976.2299805-1.210022.3599854-.3099976.1000366-.5999756.2000122-.9000244.3099976-.3899536.1300049-.7699585.2600098-1.1499634.4100342-.3099976.1099854-.6099854.2399902-.9199829.3599854-.3600464.1400146-.7200317.289978-1.0800171.4400024-.3099976.1400146-.6199951.2800293-.9299927.4299927-.3400269.1500244-.6900024.3099976-1.0200195.4700317-.3200073.1599731-.6300049.3200073-.9500122.4899902-.3200073.1599731-.6399536.3300171-.9500122.5-.3199463.1799927-.6399536.3699951-.9599609.5499878-.0599976.039978-.1300049.0800171-.1900024.1099854-.0499878.0200195-.0900269.0499878-.1400146.0800171-.1900024.1099854-.3699951.2299805-.5599976.3400269-.3200073.1999512-.6400146.4099731-.960022.6099854-.1599731.1099854-.3299561.2099609-.4899902.3200073-.0100098.0100098-.0299683.0199585-.039978.0299683-.0999756.0700073-.2000122.1400146-.2999878.2000122-.3200073.2199707-.6400146.4500141-.9500122.6799946-.2600098.1900024-.5200195.3699951-.7700195.5599976-.039978.0300293-.0799561.0599976-.1199951.0900269-.2799683.2099609-.5599976.4400024-.8399658.6599731-.2400513.2000122-.4900513.3900146-.7200317.5900269-.1199951.0999756-.25.2000122-.3699951.2999878-.0999756.0899658-.1900024.1799927-.289978.2600098-.0900269.0799561-.1799927.1599731-.2700195.2399902-.2299805.2000122-.460022.4000244-.6799927.5999756-.1799927.1700439-.3599854.3400269-.539978.5100098-.1600342.1400146-.3100586.2999878-.460022.4500122-.1799927.1699829-.3599854.3400269-.539978.5200195-.2400513.2399902-.4800415.5-.7200317.75-.1400146.1499634-.289978.3099976-.4400024.4599609-.0999756.1100464-.2000122.2200317-.2999878.3400269-.289978.3200073-.5700073.6499634-.8500366.9699707-.0799561.1000366-.1599731.1900024-.2399902.2800293-.0599976.0800171-.1300049.1499634-.1900024.2199707-.039978.0500488-.0799561.1000366-.1199951.1500244-.2699585.3300171-.539978.6799927-.7999878 1.0200195-.1699829.2199707-.3499756.4400024-.5100098.6599731-.2699585.3599854-.5199585.7200317-.7699585 1.0800171-.1600342.2199707-.3200073.4500122-.4700317.6699829-.0899658.1400146-.1799927.2700195-.2700195.4099731-.1300049.2000122-.25.4100342-.3800049.6100464-.0299683.0299683-.0499878.0700073-.0699463.0999756-.1400146.2299805-.2900391.460022-.4400024.6900024-.1199951.2200317-.25.4299927-.3699951.6500244-.1400146.2299805-.2700195.4699707-.4000244.6999512-.0999756.1800537-.2000122.3500366-.289978.5200195-.1700439.3099976-.3300171.6300049-.4900513.9400024-.1099854.2299805-.2299805.460022-.3499756.6900024-.0499878.0999756-.0999756.2000122-.1400146.2999878-.2000122.4000244-.3800049.8200073-.5599976 1.2300415-.0499878.0999756-.0999756.2099609-.1400146.3099976-.0699463.1499634-.1299438.289978-.1999512.4400024-.1700439.4099731-.3300171.8299561-.4899902 1.25-.1000366.2599487-.2000122.5099487-.3000488.7699585-.0199585.0700073-.0499878.1400146-.0700073.210022-.0799561.2199707-.1499634.4500122-.2299805.6699829-.039978.1300049-.0899658.2700195-.1300049.4000244-.0899658.2699585-.1799927.5299683-.2699585.789978-.0400391.1500244-.0800171.2999878-.1300049.4500122-.0900269.3099976-.1700439.6099854-.25.9099731-.0700073.2600098-.1500244.5100098-.210022.7600098-.0599976.2399902-.1099854.4800415-.1699829.7200317-.0800171.3200073-.1500244.6300049-.2200317.9500122-.0299683.1699829-.0800171.3299561-.1099854.4899902-.0700073.3499756-.1199951.6999512-.1900024 1.0499878-.0499878.3099976-.1099854.6099854-.1599731.9199829-.0100098.0700073-.0300293.1500244-.0400391.2200317-.0700073.4899902-.1300049.9899902-.1900024 1.4799805-.0100098.1300049-.0299683.2600098-.0499878.3800049-.0100098.1300049-.0299683.25-.039978.3699951-.0599976.5599976-.0900269 1.1199951-.1300049 1.6900024-.0100098.1900024-.0300293.3800049-.0400391.5700073-.039978.7600098-.0599976 1.5299683-.0599976 2.2999878s.0200195 1.5300293.0599976 2.289978c.0100098.1500244.0200195.3000488.0300293.4500122.039978.6099854.0800171 1.2200317.1400146 1.8200073.0199585.2000122.0499878.4099731.0799561.6099854.0599976.5400391.1199951 1.0800171.2000122 1.6199951.0400391.2200317.0800171.4400024.1199951.6600342.0800171.5199585.1700439 1.0299683.2700195 1.539978.0499878.2200317.1099854.4500122.1599731.6699829.1100464.5.210022.9900513.3400269 1.4800415.0599976.2299805.1300049.4599609.1900024.6799927.1300049.4799805.2600098.9699707.4099731 1.4400024.0700073.2199707.1500244.4400024.2200317.6599731.1499634.4700317.3099976.9500122.4799805 1.4200439.0700073.2099609.1600342.4199829.2399902.6299438.1799927.4700317.3600464.9400024.5500488 1.4000244.0899658.2000122.1899414.4000244.2699585.5999756.210022.460022.4100342.9200439.6199951 1.3700562.1000366.1999512.2000122.3999634.2999878.5999756.2300415.4500122.4500122.8900146.6900024 1.3300171.1000366.1900024.210022.3800049.3200073.5799561.25.4300537.4899902.8600464.75 1.2900391.1100464.1900024.2300415.3800049.3500366.5700073.2600098.4099731.5299683.8299561.7999878 1.2399902.1300049.1900024.2600098.3699951.3900146.5599976.2799683.3999634.5599976.7999878.8499756 1.1900024.1400146.1900024.2800293.3599854.4199829.539978.2900391.3900146.5900269.7700195.9000244 1.1500244.1500244.1799927.2999878.3499756.4500122.5299683.3099976.3699951.6199951.7300415.9500122 1.0900269.1499634.1799927.3199463.3399658.4799805.5200195.3200073.3399658.6499634.6899414.9799805 1.0299683.1799927.1699829.3500366.3400269.5300293.5100098.3299561.3300171.6699829.6499634 1.0100098.9699707.1900024.1700439.3799438.3300171.5699463.5.3400269.3000488.6900024.6100464 1.0400391.9000244.0700073.0599976.1400146.1099854.2000122.1599731l30.5277672 30.527832c10.4324341-.5790405 20.869751-3.7176514 30.352356-9.6534424 19.8438721-12.4215698 30.5180664-33.9403076 30.0228882-55.7613525l-26.7930298-26.7930298c-.3500372-.4599606-.7000128-.9099728-1.0599981-1.3499752z" opacity=".1"/><circle cx="71.509" cy="68.772" fill="#ededed" r="44.792"/><g fill="#4abba4"><path d="m115.3986435 59.7946625c-.0396576-.0237961-.0872498-.0475883-.1269073-.0634537-.1425781-.0473976-.2613602-.0632591-.4039383-.1346436-.1744995-.0951805-.3329391-.2615547-.5548325-.1425781-.1267166.4120598-.1346436.8397903-.2615509 1.2518539-.0711899.2220879-.1505127.8005219-.4594574.768795-.0872498-.1348419-.0793152-.2774162-.1348419-.4279251-.0553284-.1822357-.1346436-.2694855-.1584396-.4517212-.0632629-.3486061-.0315323-.7210083-.1584396-1.0618782-.1505051-.4120636-.1108475-.8082619-.2377548-1.2203217-.1425781-.4515266-.2613602-.7525444-.2534332-1.2280579.0079346-.657753.0237961-1.3232422 0-1.9809914-.0079269-.3724022-.0475845-.8717117-.1506958-1.2282524-.0791245-.2772217-.2454987-.5625687-.4197998-.784462-.1427765-.1822357-.4596558-.3486099-.4517212-.5942993.3327408-.1346436 1.0460129-.2851524 1.5530624-.1822357-.5070496-1.2837715-1.069809-2.5356255-1.6956406-3.7559471-.3803329-.1663742-.7132721-.3089485-.9668961-.6736145-.2613602-.3803329-.3803329-.8320541-.6260223-1.2201271-.1425781-.2220879-.3565369-.364666-.5308456-.5548325-.2772217-.3089485-.4596481-.6180916-.8082581-.8635864-.3882675-.2774162-.8556519-.3329391-1.2518539-.5865593-.6180878-.3961983-1.3710175-1.0299606-1.59272-1.7432327-.1031113-.32481-.1901703-.6022263-.3803329-.8794518-.1031113-.1584396-.2694855-.6577492-.4596558-.7053375-.1425781.2298241-.0634537.689476-.0634537.9508362.0158615.610157.4358597 1.093605.7212067 1.6006546.2375641.4279251.2772217.6656799.2613602 1.149128 0 .2772217-.0396576.5308418.1665649.7448044.126709.1425781.2613602.1584396.2930832.3724022.0237961.1505089-.0158615.2694855.0317307.4279251.0632553.2060318.1663666.3565407.1822357.5863647.0158615.3168831-.0158691.6418877-.0158691.9587708 0 .3250046.0079346.6418877.0079346.9587669-.0079346.3091431-.1029205.6974106.1346436.9351654.1427689.1425781.3962021.1741104.5548325.3010178.213768.1584396.2851562.3882675.3089523.6418877.0237961.404129.0713806 1.0299606-.0317307 1.4102936-.0713806.2694855-.3248138.3725967-.4753189.5865593-.1744995.2456894-.2615509.4911842-.285347.8001328-.0237961.3250084.0079269.6656837.0079269.9904976 0 .3805275.0396652.7846565.0079346 1.1649895-.0158615.2375641-.1267166.7844658-.3406754.9429054-.1269073.0951805-.3488007.0396576-.4834442.0396576-.3565445-.0079308-.7606735.0632629-1.1013489 0-.5310364-.0951805-.8479156-.5863647-1.3948135-.6974068-.1981049.3882675-.3168869.8955078-.4277344 1.3155022-.0555191.2216988-.0793152.4120598-.0713882.6418839.0079346.4435959.118782 1.0934143.0079346 1.5134087-.0634537.2218933-.1980972.3010178-.3012085.5070457-.1899796.3486099-.1267166.7923965-.3168793 1.1491318-.372406.697216-.9746323 1.2042618-1.466011 1.7985611-.2375641.285347-.4039383.5468979-.5467072.8796463-.1108551.2692871-.1584396.8717117-.4515305 1.0380783-.3644714.2139664-.8241196-.2298203-1.0301514-.4755096-.2139587-.253624-.4517212-.499115-.4755173-.8479195-.0158615-.2377586-.0555191-.5467072-.031723-.7686005.0396576-.3565407.4755173-.9429054 0-1.2597847-.5863647.5308418-.0632629 1.4737473-.5546417 2.0363159-.1980972.1269073-.3961945.2694855-.5705032.4279251-.0634537.1663742-.1743011.285347-.3406754.3408661-.2218933.087059-.5704956.0077438-.8003235.0077438-.6180954 0-1.2599792.0555191-1.8780746.0079269-.3644714-.0315323-.5625687-.2851486-.8239288-.5149765-.1980972-.1901665-.412056-.3644714-.6418839-.5229111-.158638-.0237961-.27742-.1031151-.3486099-.253624-.2377548-.3406754-.3329391-.7051468-.6339569-1.0142899-.1901627-.0951767-.3012085-.2377548-.3488007-.4358559.0317307-.2218933.0793228-.4517174.1269073-.67342.0394669-.3567314.0394669-.578434-.3250046-.6577492-.3406754-.079319-.6972122-.0713844-1.0458221-.0634537-.285347 0-.570694.0396576-.8479156-.0475922-.1901703-.0632591-.372406-.1584396-.5387802-.2692909-.1348343-.0237923-.2774124-.0317268-.412056-.0158615-.6498184-.0158653-1.3075714.0079308-1.965126 0-.5151749 0-.9984283.118782-1.5215378.1108513-.816185-.0079346-1.8382187-.2137718-2.5197601.3329353-.3882675.3089523-.6813507.7686005-1.0539474 1.1092796-.2058411.1822357-.6575623.3565369-.6337662.6813507.0236053.4279251.6734238.5548325.9667053.5942955.404129.0555229.4832458.2853508.4517136.7291374-.0634537.7210121-1.1570587 2.0682411.2454987 2.1235695.2377548.0079269.5546417.0158615.8003235-.0079346.4279251-.0396576.6974106-.404129 1.0142899-.6339569.2219009-.1108475.4358597-.2058334.657753-.2930832.3089523-.1031113.5784378-.27742.8082581-.5229111.4199982-.3644714.8239288-.9113731 1.3311768-1.1808586.6736069-.3486061 1.687706-.4515266 2.4168396-.2296295-.1665649.9508362-1.1253281 1.2597847-1.9335938 1.5213356-.5466995.1743011-1.1013412.3644714-1.1092758 1.0142899 0 .3168793-.031723.5546417-.0711899.8717117-.0475922.3486099.0632629.7923965-.2536163 1.0458221-.3803406.3091431-1.1648026.1427765-1.6244507.1269073-.6656876-.031723-.8875809.5784378-1.4025574.9111786-.3406754.2139664-.6339569.4120636-1.0460205.2377625-.3644714-.1584396-.6258316-.404129-.9111786-.6815491-.2615509-.2456894-.3565369-.404129-.3406754-.7923965 0-.2456894-.0237961-.4120636-.1110382-.6496277-.118782-.3567276-.3962021-.6656799-.5149841-1.0063553-.1427689-.1427689-.1663742-.3250046-.0634537-.5310364.2139664-.3089523.404129-.6416931.5625687-.982563-.2851486-.1980972-.6022263-.3010178-.9666977-.2218933-.404129.0872498-.499115.2615509-.7130814.5863686-.1584396.2377548-.1269073.2456818-.4913788.1980972-.2218933-.0317307-.4675827-.0791245-.6813507-.1425781-.3805237-.1108551-.5705032-.285347-.8717117-.5229111-.3803329-.2932816-.7606659-.0475922-1.1965256.0079308-.2932816.0315323-.8241196.0791245-1.0934143-.0475922-.2536163-.1189728-.4834442-.3724022-.7053375-.5387726-.3010178-.2298279-.5229111-.4596519-.8399887-.6498184-.245491-.1505089-.5387726-.5310364-.8159943-.6101608-.5389709-.1505089-.7529297.6339531-.9431.9666977-.1267166.2139626-.2139587.285347-.2377548.5546379-.0236053.2377586.0396576.4199944-.1108551.6498184-.1425781.2218933-.5546341.4675827-.7765274.5863647-.3565445.1901703-.7923965.404129-1.1806641.2377625-.2932816-.1346512-.499115-.3644714-.5942993-.657753-.1029205-.3248138-.2377548-.6337624-.3486099-.9587669-.1189728-.3406754-.3567276-.5705032-.5231018-.8953171-.0553284-.111042-.0475922-.2536201-.1743011-.3329353-.2772217-.198101-.871521-.0555229-1.1885986-.0473976-.3486023 0-.7448044.0158615-1.0775452.1346436-.3646698.1425781-.6974106.578434-1.0698128.752739-.3327446.1505089-1.156868-.0713844-1.0539513.4911842.0713882.4120636.3329391.8399887.5151749 1.2125854.2534294.5229111.5546379 1.0537491.8558502 1.5449371.2375641.3805313.6337585.6101608.871521.9986191.3089447.5149841.31707.871521 1.0142899.8556595.4437866-.0158691.8399811-.2139664 1.2915115-.2218933.4358521-.0158691.8875732.0079269 1.3234329 0 .2296295 0 .4358521-.0077438.6498184.0713806.1108475.0396576.213768.1031113.3248138.1346436.1425781.0396652.4279251.0555267.5942917 0 .094986-.0315323.1901703-.1584396.3010178-.1663666.3646698-.0474014.6656876.4279251.8399887.6736145.2139587.3010178.0555191.7448044.2774124 1.0063553.3327484.404129 1.1648026-.1269073 1.4975433.4118652.1425781.2379532.0317307.7132721.0317307.9668961 0 .2772217-.0079346.5546417-.0079346.8318634 0 .1348343-.0237961.3012085.094986.3961945.2218933.1744995.8875809.0396576 1.1253357-.0394669.3089523-.1031113.2454987-.2456894.4120636-.4675827-.0158615-.1346436.0632553-.2060318.2139587-.2060318.1108551.0158691.213768.0396652.3248138.0555267.3486099.1980972.2298279.903244.2298279 1.2282486 0 .467392-.0237961.9349747-.0951843 1.3944321-.031723.190361-.118782.3884583-.1743011.562767-.1743011.499115-.1505051.9984207-.1901703 1.5054703-.0475845.5942993-.3327408.7686005-.7765274 1.1094742-.404129.3089447-.5070496.6734161-.5149841 1.1727295 0 .126709-.031723.2851562-.0079269.4120636.0791245.412056.4435959.2692871.7765274.1663666.0317307-.0158615.7923965-.4199905.871521-.6498184.0079346-.0555191.0079346-.1031113.0079346-.1584396-.1029205-.1901627-.0553284-.3486099.1348343-.4596481.4120636 0 .7368774.1822357.9746323.530838.1743088.2218933.3327484.4437943.4753265.6815491.1665649.31707.1506958.6656799.5704956.7368698.4675827.0872498 1.3948212-.3406754 1.6482468-.7527313.1743088-.285347.1110458-.5942993.1031113-.9270401 0-.3012161-.1031113-.6736145.118782-.911377.3170776-.1584396.6022339-.3565369.8637848-.5942917.1980972-.2217026.4437866-.3089523.7368698-.2534332.2377625 0 .7051468-.0634537.8873825.1108551.2456894.2377548.1507034.8873825.2932816 1.2044525.1743011.3882675.4120636.6734238.7448044.9349747.27742.2218933.3962021.5389709.6736145.7448044.372406.285347.5705032.2932816.6496277.7846603.0872498.5705032.3646622 1.1489334.7449951 1.5925293.1346512.1586304.6101608.3725967.6416931.6024246.0951843.6734161-1.3944244.5229111-1.687706.4435883-.657753-.1822281-.8794556-.7051468-1.1806641-1.2677155-.3406754-.6577454-.7289429-1.2123871-1.188591-1.7908173-.5467072.3327408-.2218933 1.0775452-.5546417 1.5372009-.3091431.412056-.8796463.4753189-1.3391037.4594574-.5072403-.0156708-.9904938-.1029205-1.4897995-.2217026-.5149841-.1346436-1.0063629-.1269073-1.5372009-.1189728-.1822357.2536163-.1267166.7291336-.1108551 1.0222168.0236053.4358597.1663742.689476.491188.9746323.3168793.27742.7368698.784462 1.1409988.9431.1743088.0632629.340683.0315323.5151749.0711899.3882675.0793152.6654892.2615509.9982376.4596558.222084.1346436.5786209.1822357.6736145.4515228.0872421.2456894.0713806.8241196.0079269 1.0777435-.1108475.4437866-.5546341.5784302-.9429016.657753-.3644714.0713806-.6815491.3010178-1.0460205.3486023-.5149765.0713882-1.188591.0396652-1.6956406-.0237885-.3803329-.0553284-.5863647-.2932816-.8717117-.5070496-.3882675-.27742-.9191132-.372406-1.1330719-.8241272-.1822357-.3723984-.2377548-.7527313-.5784302-1.0380859-.3012161-.2613525-.744812-.3406754-1.1015396-.4911804-.4753265-.1980972-.9429092-.4517212-1.2044601-.9113693-.1743011-.3089523-.2454987-.7606735-.3010178-1.1092758-.0158615-.1031189.0317307-.7608643-.031723-.9589615-.0951843-.2454987-.4755173-.4435959-.6972198-.5229187-.3567352-.118782-.5625687.1507034-.9113693.0713882-.4832535-.1110458-.8320541-.4120636-1.0537567-.8399887-.1980972-.3723984-.3803329-.7527313-.5865555-1.1251373-.1267166-.2218933-.3010178-.4596481-.372406-.6974106-.0711899-.2613602-.0079346-.5467072-.0553284-.8080673-.031723-.1665649-.1348343-.3091431-.1743011-.4675827-.0713882-.2615509-.0396576-.4913788.0394669-.7686005.1901627-.6736145.7606659-1.2282486.9192963-1.9097977.1901703-.8318558-.5863647-1.4896088-1.1253281-1.9889221-.3962021-.3723984-.404129-.903244-.7051468-1.3153076-.1584396-.2218933-.4913788-.2377548-.7289429-.3327408-.27742-.1189728-.5151749-.1348419-.7923965-.2060318-.4199982-.1031113-.4596558-.5387726-.7687988-.784462-.2534256-.2060318-.6496239-.2377548-.8794479-.4755173-.2060318-.2139587-.3250046-.5625687-.5072403-.8082581-.293087-.3803329-.6101608-.752739-.8953171-1.1410065-.1901665-.2615509-.4279251-.5389633-.689476-.7130737-.1663742-.1110458-.3486061-.158638-.5229111-.2694855-.1505089-.1031113-.2694855-.2694855-.4279251-.3565369-.3724022-.2298279-.7448044-.0555267-1.1172104.0553284-.2456894.0634537-.4358559.0634537-.689476.0237885-.5467072-.094986-1.1172066-.0315323-1.655983-.1584396-1.0301552-.2298203-1.8146172-.8953094-2.7892494-1.2597809-.3803329-.1348419-.7212029-.0793228-1.1174011-.0793228-.4197998.0079346-.8397942-.031723-1.2518539.0158691-.285347.0394592-.5625687.1108475-.8479195.1505051-.3486061.0475922-.6813507.0158615-1.0301514.0317307-.3803368.0237961-.7606697.3248138-.9984283.6101608-.1108475.126709-.1584396.3168793-.2456894.4596481-.1505089.2375641-.3406754.4356613-.5703087.6258316-.3805275.31707-.6815453.5310364-1.1649895.4993057-.3327446-.0237885-.5308456.0394669-.8159981.2060318-.3408699.1901703-.6815453.3406754-.8717117.7051468-.1584435.3091431-.1901703.657753-.404129.9429092-.2377586.31707-.6101608.6260223-.8796463.9113693-.174305.1743011-.3486061.3010178-.4279251.5387726-.094986.3010178.0317268.6101608-.0158615.9034424-.0156708.0870514-.1741104.3168793-.2058372.3644714-.1507034.2534256-.2615547.5467072-.3250084.8399887-.1029167.4277267-.1425781.8953094-.1505089 1.3390961-.0158615.7051468-.0793152 1.4737473-.0079308 2.1790924.0793152.752739.5625687 1.4975433.8241234 2.1868286.118782.31707.3010178.4279251.4834442.6736145.1663742.2298203.2058372.5149765.3961983.7529297.2137718.2613602.5149803.4594574.7368736.7289429.3565407.4279251.7130814.8241196 1.1013451 1.2280579.2774162.2932739.4596519.6418839.6418877 1.0063553.1822357.3408737.2774162.776535.5705032 1.0380859.0872498.0713882.2139626.118782.293087.1980972.1506996.1663742.2139626.4675827.2694817.6736145.1425781.5070496.198101.9587708.4993095 1.4104919.1901703.2930832.4437904.5625687.5387764.9111786.0791245.2930832.0872498.5704956.1980972.8558426.2060318.5625763.2377586.9032516-.32481 1.2359924-.2060318.1189804-.4437904.253624-.6736145.3170776-.2218933.0555191-.6656837-.0158691-.8479195.1346436-.2930832.2218933-.2692909.9825592-.2218933 1.3075714.0555229.3486023.198101.6575546.2060318 1.0140915.0158615.4120636-.1663742.62603-.2692909.9904938-.0634537.2220917-.0475922.3567352-.1665649.5548325-.1741104.3089523-.5070496.5149841-.7842712.7289429-.7923965.6101608-1.7751541.8241272-2.5911484 1.4025574-.3961983.2851562-.832058.5308456-1.1015396.9349747-.1505089.2218933-.3803368.4993057-.4358559.752739-.0632629.3250046.0317268.7449951.0317268 1.0777435 0 .1663666.0237923.3961945-.0396614.5546341-.1108475.3091431-.3565369.3486099-.5942955.5072403-.4120598.2772293-.2454948.7844696-.2534256 1.2203217 0 .2534332.1029167.871521.5467033.8160019.174305.1110382.3406792.2377548.4991188.3725967.2615509.1584396.5231056.3168793.7765312.4753189.2615547.2377548.3091431.6101608.5865593.8479156.1822357.1029205.3565407.2060318.5308418.3168793.1505089.1110458.3010178.2219009.4515266.3327484.2062263.0475922.4043236.1110458.6024246.1980972.2296295.158638.4594574.3250046.6892815.4834442.3644714.2139664.7132721.4279251 1.0777435.6418915.2613602.1584396.5625725.3406754.8556557.4435959.1822357.0158615.3406792.0793152.483448.1980972.118782.1586304.2456894.3091431.3882675.4437866.4358559.4358597.8082581.6022263 1.4184189.5784378.67342-.0158691 1.5530624-.118782 2.139431.285347.206028.1425781.404129.3803329.6577492.4596481.3803329.1267166.7923965-.0237961 1.156868-.0713806.5784302-.0793228 1.1806602-.0079346 1.767025-.0237961.3803368-.0158691.4596519.1425781.8082619.2774124.1901665.0632629.3803329.1029205.5863647.118782.1901665.0317307.3565369.1267166.4911842.285347.4199905.2930908.7606697.3248138 1.2520447.3089523.372406-.0237961.5308456-.1505127.8637848-.3168793.1425743-.0555267.2772217-.1189804.4199905-.1743088.1822357-.1586304.3803368-.3012085.586174-.4199905.7449989-.3646622 1.0539474-1.2917099 1.8146172-1.6958389.4913788-.2692871 1.1808548-.126709 1.7117004-.126709.2060242.0079269.412056 0 .6180878 0 .8239288 0 1.560997.0079269 2.3692551-.1663742.8873825-.1980972 1.8382187.0079346 2.7416611-.0237961.6972122-.031723 1.2520447-.3089447 1.8858109-.5310364.5231018-.1741104.9825592-.1346436 1.5135956-.1346436.5625687 0 .8794556-.1663742 1.2915115-.5070496.2932816-.2377548.5625763-.4199905.9193039-.5705032.4515305-.1901627.839798-.2774124 1.3311768-.31707.5229111-.0396576.8082581-.1346512 1.1409988-.5705032-.0555191-.1743088-.5863647-.1584396-.776535-.2139664-.4358521-.1346436-.8796387-.2851486-1.3311691-.3961945-.3644714-.094986-.6498184-.0553284-.9746323-.2456894-.3488007-.2058411-.7529297-.3327484-1.1332626-.467392-.5467072-.2060318-1.0380859-.4834442-1.5372009-.784462-.3327484-.2139664-.2377548-.285347-.0079346-.5546417.3882675-.4596481.4517212-1.1253281.4358597-1.7116928-.0079346-.6418915-.1505127-1.2121964-.0158615-1.8382187.0793152-.3803406.3168793-.6736145.4755096-1.030159.1584396-.3646622.2058411-.6418839.1981049-1.0539474-.0079346-.3089447-.1031189-.7289429.0473938-1.0063553.1665649-.3010178.5231018-.4517212.6498184-.7923965.1269073-.3486099.0237961-.7448044.0475922-1.1092758.0237961-.4596558.2534256-.8082581.2298203-1.2758408-.0396576-.5942993.340683-1.243927 1.0299606-.9984283.4596558.1584396.2694855 1.0142899.2694855 1.4104843 0 .4913788.0951843 1.1092758-.0158615 1.6006546-.0555191.2456894-.2454987.3962021-.3406754.6180954-.1584396.3486099-.0713882.8082581-.0713882 1.188591 0 .6656799-.0632553 1.3311691.1031113 1.9809875.094986.3486099.1505127.6498184.094986 1.0142899-.0870514.5784378-.404129.8953171-.6972122 1.3708344-.1901703.3089447-.404129.5942917-.6101608.8953094-.0475922.0713882-.1663742.1822357-.1584396.2932816.0158615.1743088.3010178.404129.4197998.5229111.1189728.1189804.2377548.2060318.3250046.3488007.1029205.1822357.0634537.2058411.253624.3168869.4118652.2534256 1.0378876.0396576 1.4499512-.0872498.3882675-.1267166.8558502-.1029205 1.2599792-.0791245.2139587.0079269.404129.0553284.6022263.1425781.1822357.0791245.3644714.2536163.5467072.2930832.3882675.0951767.9666977.0081253 1.3470383.0158615.1665649 0 .3329315.0158691.4993057-.0077362.2851562-.0317307.5149841-.2062225.7923965-.2774124.4120636-.1029205.8794556-.0951843 1.2994461-.1584473.3803329-.0634537.721199-.1824265 1.1015396-.1980972.3723984-.0237961.7210083-.2615509 1.0537491-.4199905.4834518-.2218933.7132797-.4279251 1.0777435-.784462.2139664-.2060318.4596558-.4120636.5308456-.7132721.0555267-.2058411.0158615-.4356689.0158615-.6496277 0-.2377548.1189804-.8320541-.0396576-1.0380859-.1584396-.2139587-.7448044-.1110458-.9508362-.1029205-.5229111.0077438-1.1092758-.1110382-1.188591-.7370682-.0317307-.3089447-.0237961-.4755096-.1584396-.7606659-.1584396-.3327484-.0555267-.7289429-.2298279-1.0460205-.1505051-.2772217-.5070496-.3486023-.5863647-.6575546-.0555191-.2062225-.0158615-.5310364-.0079346-.7529297.0158691-.3089523.1346512-.5070496.3091431-.7686005.2454987-.372406.4120636-.491188.839798-.5070496.2060242-.0079346.5863647-.0793152.7053375.1505127.118782.2218933-.0713882.5784302-.0951767.8082581-.0396652.2692871-.0791245.6260223 0 .8794479.0951767.3170776.4437866.4120636.5942917.689476.0793152.1505127.0793152.3168869.1822357.4755173.0555267.094986.1507034.1743011.2139664.2692871.1901627.27742.4358521.4834518.6339569.7606735.2536163.3567352.3644638.5784302.8320541.7291336.3089447.1029205.6101532.2377625.9429016.253624.4358521.0235977.8796463 0 1.3153076-.0158615.1586304 0 .2774124-.0158691.4279251.031723.1822357.0632629.2615509.2534256.4437866.3248138.3250046.118782.6418839-.1031113.9904938-.1189728.3565445-.0158691.7606735.1586304.9034424.5072403.1663742.4199905.1425781.9191055.118782 1.3549652-.0079346.1505051-.0317307.2615509-.0079346.404129.0872498.4594574.4675827.4594574.752739.7210083.2139587.1980972.0793152.7212067-.0237961.9746323-.0870514.190361-.2139587.2456894-.2692871.4755173-.0555267.2060318 0 .4279251-.0079346.6260223-.0396576.9508362-.7053375 1.7273712-.6656799 2.6940689.0158615.3803329.0793152.8717117.2377548 1.2203217.1980972.4437866.657753.4832535.9111786.0237961.1189728-.2139664.0475922-.2930908.0475922-.491188 0-.2298279.0870514-.4596481.1822357-.6656799.1980972-.4279251.4279251-.6815491.4755096-1.1570663.0236053-.2296295.0632629-.5070419.1425781-.7368698.118782-.3248138.253624-.3486099.5784378-.4118652.4993057-.1031189 1.0539474-.190361 1.5292664-.3884659.4199905-.1743011.8161926-.530838 1.0460205-.903244.1980972-.3406754.2774124-.6022263.7132721-.5625687.4356613.0315323.9111786.0713882 1.2439194-.2218933.1427689-.1110458.2456894-.285347.3565369-.4199905.27742-.3248138.5546417-.5546417.911377-.7686081.2851486-.6656799.8715134-.9666977 1.3390961-1.4818726.1267166-.1505051.2377625-.2692871.3486099-.4356613.1427689-.2377548.1663742-.5072403.2932816-.7449951.118782-.213768.3723984-.5070496.6654892-.4832535 1.2203217.0791245.2377548 1.8542709.5231018 2.4801025.0711899.1584396.3089523.2694855.5229111.27742 7.0127792-7.9080963 11.2757797-18.3044205 11.2757797-29.7069168-.0000011-3.0745921-.3089534-6.0776134-.9032451-8.9779048z"/><path d="m104.8835297 39.9609718c-.2060242-.0713844-.3882599-.2296333-.5942917-.2772217-.1584396-.0317268-.3327484.0158615-.4913788-.0396614-.2060318-.0713844-.2692947-.206028-.3882675-.3724022-.2296295-.3091431-.6180954-.4913788-.6180954-.8955078-.0077362-.1743011-.0473938-.4277306-.0158615-.5942955.0396576-.1901665.2139664-.293087.2615509-.4753227-.1425705-.2774162-.9429016-.1269073-1.188591-.0396576-.2534256.0872498-.4437866.2060318-.7289429.1505089-.3644714-.0791245-.6815414-.4594574-.9270401-.7210121-.1269073-.1505089-.2218933-.4120598-.3961945-.5151711-.27742-.1584396-.6339569-.174305-.9193039-.3327446-.3644714-.198101-.7289429-.4279251-.9587708-.7765312-.1425781-.198101-.2615509-.4120636-.4199905-.6101608-.2218933-.2772255-.5467072-.3882675-.8241272-.6022301-.1584396-.1267128-.2851486-.2932777-.4358521-.4279251-.3248138-.2851524-.6813507-.2692909-1.0616913-.4437866-.2377548-.1029205-.412056-.2375641-.6180878-.3961983-.2456894-.1899757-.4834518-.3010178-.776535-.4120636-.4517212-.1741104-.8558502-.3565369-1.2441177-.6416912-.1663666-.1189766-.2615509-.1980991-.4279251-.2536221-.3565369-.1029186-.5863647-.348608-.8953094-.5308418-.2377625-.1427708-.4437866-.2615528-.6656876-.4279251-.1822281-.1505089-.3406754-.1980991-.4358521-.4120617-.0632629-.1346455-.094986-.4358559-.2375641-.4991169-.1189728-.055521-.253624.0158634-.3884583-.0475903-.2534256-.1269073-.3880768-.3170738-.5467072-.538969-.1425781-.1980972-.2613602-.2217007-.467392-.3248119-.2218933-.1031113-.4199905-.2536201-.6260223-.3803349-.3486099-.1980991-.3644714-.5070477-.4596558-.8796444-.031723-.1346455-.0634537-.2692909-.094986-.4039364-4.9128113-1.846344-10.22995-2.8606339-15.7846527-2.8606339-2.5039062 0-4.9524765.2060318-7.3455276.6022282-.0077362.0158634-.0235977.0317268-.0394669.0475903-.1586304.1505089-.3012085.229826-.3408661.4594593-.0317268.2060299.0317268.4279232.0158615.633955-.0158615.1743031-.0870552.4755154-.2456856.578434-.118782.0713844-.3803368.0713844-.5229149.1269073-.1901665.0711918-.3486061.2058353-.499115.3327427-.1507034.118782-.3408699.174305-.4517212.3327446-.111042.1586342-.1269073.3567333-.1505089.5467072-.0396576.2377567-.1031113.3803349-.2615509.5548325-.2139626.2375641-.1584396.5229111-.0555229.8241215.1110458.3010178.3170738.5861721.5151749.8318615.1346436.1744976.118782.1586342.174305.3250065.0555191.1346455-.0237961.0711918.118782.1663723.2774124.1822357.6339531.0237942.9034386.2456894.118782.094986.1980972.2217007.3327446.3010159.118782.0713863.2298241.0870552.3486061.1584415.253624.1425762.3644714.5546379.5229111.7923965.158638.2536182.0793152.4517193.1189728.7368717.0634537.4993095.4753265.5942993.9429092.6339569.2139587.0237961.4993057-.0555229.7053375.0158615.087059.0237961.2613602.2218971.2851562.2377586.1031113.0870552.3406754.1901665.3961945.3168831.0317307.0555191 0 .1744957 0 .2218933-.0158615.1824265.0079346.5546379-.1584396.6974068-.0555191.0475922-.2694778.1029205-.3248062.1267166-.1901703.0872459-.62603.1980972-.7370682.3724022-.1425781.1980972.0158615.4437866.1189728.6180916.1584396.2774162.2772217.4358559.6180954.4993095.1346436.0317268.3089447.0553284.4435883-.0079308.1348419-.0713882.2060318-.2218933.3488007-.2774162.1267166-.0555229.2851562-.0632591.4199982-.0872498.126709-.0236015.245491-.039463.3406754-.1346436.0791245-.0634537.118782-.1901703.1980972-.2456894.1505127-.118782.9904938-.2058372 1.061882-.0317268.0870514.1824265.0077362.6341476-.1110458.7846565-.1505051.1822357-.2851562.1980972-.2932816.4515266-.0158615.4675827.2062302.6815453.3725967 1.0856743-.5231018.4279251-1.093605.3089485-1.7037659.3248138-.1980972.0079308-.4517212.0475883-.6101608.1665649-.1822357.1346436-.1505051.293087-.0632553.4673882.126709.2694855.3248062.5942993.5070419.8241234.1031189.1346474.2219009.2774162.3882675.3248138.3010178.0872498.7212067.0317268 1.030159.0237961.404129-.0079346.7923889-.1108513 1.1965179-.0711937.27742.0315323.7130814.198101.9429092-.0396576.0951767-.0951805.118782-.2694855.2218933-.3565407.1108475-.0951805.2694855-.0872459.404129-.0872459.2692947.0079308.372406-.0079346.5705032-.1901703.3327408-.285347.7923965-.1269073 1.1727295-.2774162.1348419-.0475883.2298279-.1267128.372406-.1743011.1901627-.0632629.3803329-.0555229.5784302-.0555229.3012085 0 .6101608.0634537.8875732-.0791245.1029205-.0555229.1663742-.1267128.2851562-.1507034.1348419-.0315323.2932816.0081253.4358597.0081253.1822357-.0081253.3329391-.0396576.5072403-.0793152.2930832-.0793152.6099625-.0951805.8556519-.2694855.27742-.1980972.2219009-.5625687.2139664-.8794518-.0079346-.1348381-.0079346-.2456856-.0475922-.3724022-.0473938-.1505089-.1584396-.2615509-.1899719-.404129.7289429-.0951805 1.4816818.0315323 2.2185516-.0555229.4913788-.0634537 1.1806641-.5942955.9034424-1.1330719-.0951843-.1665649-.2377625-.3565369-.4120636-.4437866-.2060318-.094986-.4913788-.0237961-.7132721-.0237961-.2613602.0079346-.6339569.0713882-.871521-.0711899-.3250046-.2139626-.4675827-.6418877-.9034348-.6974106-.2851562-.0396576-.5784378-.1267128-.8399887-.2774162-.1505051-.0870552-.2772217-.2218933-.3722076-.3644714-.1110458-.1663704-.1348419-.2139626-.0555267-.3803329.1108551-.2218933.4358597-.3486061.6498184-.4437866.1981049-.0870552.3168869-.0949898.5308456-.1029205.1901703 0 .3962021.0396576.5784378-.0396576.1505051-.0634537.1584396-.118782.2692871-.2298279.2694855-.269289 1.0539474-.1505089 1.4025574-.1346436.31707.0079308.6498184.0634537.9587708.0317268.1110382-.0158653.2456818-.079319.3567276-.0713844.1980972.0158615.3406754.1901665.4753265.3012085.1506958.1267166.2377548.198101.4358521.1663742.2139664-.0396576.4199905-.1346474.6498184-.0872498.253624.0634537.3089523.3329391.4199905.5229111.118782.198101.2692947.3170738.4279251.4675827.3168869.2853508.4435959.4913788.4515305.9272346-.404129.2217026-1.1013489.3010178-1.3549652.6813545-.1346436.1980972-.1901703.5546379-.1584396.784462.0713806.6101608.8873825.6656837 1.3787613.6498184.2536163 0 .5942917-.0713844.8399811 0 .2298279.0711937.3010178.2851562.4437943.4515266.1899719.2220879.3723984.3091431.6496201.3250084-.3248138.6496239-1.2044525 1.2203178-1.94133 1.1727295-.4358597-.0317268-.8479156.0475883-1.2599792-.174305-.2217026-.1189728-.4120636-.2377548-.5625687-.4437866-.087059-.118782-.1108475-.1584396-.2692947-.174305-.1269073-.0158615-.5310364-.0396576-.6656799.0158653-.094986.0396576-.1743011.1505089-.2536163.206028-.1901703.1267166-.4596558.1505089-.5705032.3803368-.1108551.2218933-.1267166.5546379-.1346512.8003273-.0158615.5308418.3010178.697216.7606735.7606697.3168793.0475883.6180878.1663704.9349747.1822357.1586304.0158615.3250046-.0079346.4834442-.0079346.3803329 0 .8320541-.0632591 1.2044601 0 .2060242.0396614.3644714.1584435.5704956.2218971.2534332.0870552.491188.0793152.7686005.0870552.2772293.0081253.4517212.0398521.7210159.1427689.1980972.0793152.3486023.1029205.5625687.1029205.9746323-.0236053 1.9494553-.00774 2.9240875-.00774.3803329 0 .7686005.0236015 1.1489334 0 .1108551-.0081253.3248138-.0872498.4199905-.0081253.0949936.0951805.1425781.3884583.2060318.5072403.0791245.1584435.1267166.2377586.118782.4120636-.0079269.1505089-.0237961.2930832.0079346.4437866.031723.198101.1425781.3803368.1505051.586174.0158691.3408661-.0156631.3646622-.245491.6260223-.158638.1744957-.4358597.2218933-.6418915.3567314-.1980972.1267166-.3168793.2375641-.5625687.2613602-.1901627.0158653-.3725967.0079308-.5625687 0-.4279251-.0079308-.8717117.0555229-1.2996368.0317268-.2298279-.0079308-.499115-.0713844-.7130814-.1505089-.2536163-.0872498-.4517212-.1108513-.7053375-.1189766-.3327484-.0158615-.5863647-.1029167-.871521-.2454948-.2774124-.1348381-.5942993-.2774162-.9034424-.3012123-.2060242-.0079308-.2930832-.0634537-.4675827-.1822357-.0791168-.0553284-.1741104-.1108475-.2534256-.1822319-.0396576-.0396614-.1505051-.198101-.2139587-.2298279-.27742-.118782-.5149841.1269073-.6815491.3170738-.2613602.293087-.5070496.5863647-.784462.871521-.1267166.1269073-.2217026.2377586-.404129.2774162-.1663742.0317268-.4515305.0158615-.6258316-.0079346-.2377548-.0475883-.4120636-.2377548-.6180954-.3724022-.2456894-.1663704-.4358521-.2536201-.7291336-.2536201h-1.3549652c-.2298279 0-.467392 0-.6972122-.0079308-.0793228 0-.2218933-.0317268-.2932816 0-.2139664.0713844-.372406.4913788-.4279251.6815453-.1822357.6498184.2774124 1.2994423.7291336 1.7194366.0791245.0713844.1663742.174305.2772217.2218933.1427765.0634537.3250122.0475922.4596558.1267166.3168793.1901665.2932739.6180916.689476.689476.5070496.094986 1.3549652.0315323 1.6004639.6180916.0475845.1108513.0396576.2534256.0872498.3724022.063446.1822357.1663666.2851562.2851486.4358559.1665649.2139626.1427689.4594574.3091431.6892853.2692947.3803329.6972198.6656799 1.0222244.9984245.2218933.2298279.4356613.3803368.7448044.4596519.6022263.1584396 1.3153076.0634537 1.9254684.0711937.4120636 0 .7923965-.0791245 1.2123871-.0791245h5.3962631c.2298279 0 .3882675.0396576.5625687-.111042.2139664-.1901703.3486099-.5149803.4120636-.7844658.031723-.1584396.0555191-.3406754.0396576-.5070496-.0237961-.2298241-.1267166-.3724022-.2298279-.5704994-.1743011-.3486099-.0713806-.8320541-.0793152-1.2203217 0-.3091431 0-.3882675.1665649-.6577492.0553284-.0711937.0791245-.1346474.1346436-.2060318.1743088-.2060318.4437943-.2536201.657753-.4120598.2375641-.174305.2217026-.3644714.2139664-.6339569-.0081253-.2851524-.0081253-.5703087-.0081253-.8635864 0-.1427727-.0315399-.3168831-.0077438-.4596519.0553284-.3248138.2930908-.4596519.2375641-.8161926-.0079269-.0870552-.0791245-.5070457-.1980972-.6180916-.0553284-.0553284-.2851562-.0870552-.3327408-.1108513-.2298279-.1031113-.5467072-.3565369-.5625763-.6260223-.0158615-.2454948.2060318-.6339569.2377625-.8953133.0156708-.1665649.0079269-.3406754.0079269-.5072441 0-.2454948.0077438-.5070457 0-.7606659-.0079269-.578434-.6418839-.6498222-1.0301514-.9587708-.1425781-.1108513-.3803329-.3329353-.4279251-.5229111-.0475922-.2139626.2060318-.4437866.3644714-.570694.2298279-.1822357.4120636-.174305.6815491-.1663742.2139587.0079346.499115-.0711899.6892776.0396614.5625763.3170738.340683 1.2123871.340683 1.7273674 0 .2139626-.0711975.578434.0081253.7846565.0711899.1741104.3168793.3327446.4435883.467392.1743088.1822357.2932816.2774124.5625763.3091393.1980972.0315361.4279175.0394669.6339493.0236053.2694855-.0158653.4675827-.118782.4675827-.4039383-.0079269-.2774162-.1348343-.5627632-.3644714-.7132721-.2615509-.1822357-.4199905-.3406754-.5704956-.6260223-.1427765-.2613602-.0872498-.5467072-.0872498-.8397942 0-.1427689-.0793152-.5072403.0634537-.6101608.1108475-.0713844.5546341-.0081253.6734161-.0081253.2377625.0081253.5784378.0317268.7923965.1665649.1505127.0949898.1980972.2772255.3327484.3565407.3250046.2139626.8005219.1108513 1.1649933.0951805.4673843-.0158615.7368698.2454948 1.0616837.5625687.1901703.1822357.3567352.3327446.4437866.586174.1743011.4834442.4834442.8479156.8558502 1.1967201.3406754.32481.499115.7448044.8241196 1.0854797.2298279 0 .3010178.079319.5308456.0713844.3962021-.0079308.4596558.0475922.6498184.3882675.087059.1663704.2060318.3168793.3406754.4435959.0555267.0793152.1108551.1665649.1584396.2456894.2615585.1427689.6022339-.3089523.7132721-.491188.1425781-.2139626.1663742-.3882637.1743088-.6418839 0-.1425781-.0872498-.4675865-.0396576-.578434.1743011-.4279251 1.0142899-.3882675 1.3628922-.3724022.1743088 0 .5387802.094986.62603-.1031151-.1189804-.2137672-.1743088-.301017-.4041366-.3803322z"/><path d="m26.9433918 64.2162933c.2774162.1584396.4675846.1029205.6498203-.1901703.1425762-.2377548.2456894-.4755135.4120598-.6974068.3644714-.499115.7844658-.5625687 1.3708305-.5625687.1267128 0 .2774162-.0317268.404129.0158615.174305.0555229.2456894.2060318.4437885.2377586.5229111.1029205 1.0378914.1029205 1.5530643.0237961.4358559-.0713844.6575584-.4279251.9111786-.768795.3250046-.4435959.5705032-.9823685.6974068-1.5213394.0791245-.32481.0634537-.6577492.0553284-.982563-.0077362-.4199905.1110458-.6022263.2377586-.9746284.0713844-.2377586.1901665-.491188.2060318-.7289429.0158615-.3329391-.0791245-.6815453.0872498-.982563.1029167-.1822357.2613564-.3168831.3486061-.5072441.1346436-.2613564.3012123-.5546379.404129-.8241234.0317268-.094986.0317268-.2058334.0713844-.3010139.0791245-.1901703.1901703-.3248138.2137718-.5387764.0239868-.1822357-.0394669-.3803368-.0236015-.5627632.0236015-.2296333.1663704-.4356651.1901665-.6654892.0237961-.1663742-.0237961-.3406754-.0079308-.5072403.0634537-.697216.3882637-1.4261589.6260223-2.0680466.118782-.3168793.2454948-.5231056.4911842-.7606697.2218933-.2139626.5151749-.4279251.6656837-.7053413.1584396-.2930832.1663704-.6654854.2930832-.982563.1269073-.3089485.3406792-.5070457.5705032-.7448044.2139626-.2298241.3644714-.4675827.5072403-.752739.1584435-.3168793.3882675-.5231018.6418877-.7765312.2217026-.2139626.5070496-.4279251.6260262-.7130775.0870552-.190361.0870552-.4120636.1505051-.6101608.0632629-.2062225.0870552-.3884583.118782-.5942955.0475922-.3803368.198101-.6736145.372406-1.0063591.1348381-.2536201.111042-.6180916.2932777-.8241234.2139626-.2536201.5705032-.4755135.8320541-.6736145.3010178-.2218933.5546379-.4913788.8239288-.7448044.198101-.1901665.3805275-.3486099.5310364-.578434.1822357-.285347.3882675-.5149803.5863647-.7844658.1584435-.1980972.198101-.5151711.4120636-.6656799.2218933-.1584396.6496239-.0396576.7686005-.3010178.0237961-.0555229 0-.1269073.0158615-.1822357.0317268-.1031113.1108513-.2062263.1505089-.3170738.1584435-.4358559.0634537-.9111786.198101-1.3549652.0555229-.2060318.1505089-.4517212.2692909-.6260262.1348381-.1822357.4043236-.32481.4834442-.5467072.0317268-.1108475.0079346-.2930832.0237961-.4120598.0237961-.1505089.0713844-.2615547.1110458-.4120598.0553284-.2377586.0791206-.4041328.2296295-.6101608.1031151-.1584435.2139626-.3089523.3170738-.4675827.1425781-.2139626.2851562-.4120636.3803368-.6496277.1108513-.2536201.2456894-.5548325.2456894-.8399849 0-.1505089-.0555229-.3168831.0158615-.4596519.1029205-.2217007.411869-.3248119.578434-.4911842.2139626-.2060318.388073-.4120617.6179008-.6022301.2615509-.2139606.4596481-.4675827.6418839-.7370663-11.9571262 7.0603695-20.3486687 19.5247403-21.8146797 34.033556z"/></g><path d="m35.2350426 68.7726212c0 24.3503113 15.7368736 44.1681366 35.3407402 44.7782974-24.3106537-.4913788-43.8589935-20.348671-43.8589935-44.7782974s19.5483418-44.2871094 43.8589935-44.7782974c-19.6038666.6101627-35.3407402 20.4279899-35.3407402 44.7782974z" fill="#344d5b" opacity=".1"/><path d="m116.3050079 68.7726212c0 24.4296265-19.548439 44.2869186-43.8590851 44.7782974 19.6038589-.6101608 35.332901-20.4279861 35.332901-44.7782974s-15.7290421-44.1681366-35.332901-44.7782974c24.3106461.491188 43.8590851 20.3486747 43.8590851 44.7782974z" fill="#344d5b" opacity=".1"/><path d="m107.6865005 55.2367554h-72.3513221c-1.2150879 0-2.2001953.9851074-2.2001953 2.2001953v22.668457c0 1.2150879.9851074 2.2001953 2.2001953 2.2001953h72.3513184c1.21521 0 2.2003174-.9851074 2.2003174-2.2001953v-22.668457c.0000037-1.2150879-.9851037-2.2001953-2.2003137-2.2001953z" fill="#feda6f"/><g fill="#344d5b"><path d="m50.1940308 74.8362808-3.1282616-12.3313065h1.6833038l1.464325 6.2386475c.3649635 1.5373154.6941757 3.0746307.9146423 4.2633743h.0357513c.2011032-1.2259827.585434-2.6888199 1.0070038-4.28125l1.6460609-6.2207718h1.6654282l1.5000763 6.2580109c.3470879 1.4628372.6763 2.9271622.8595238 4.2261353h.0357552c.256218-1.3540878.6047935-2.726059.9891243-4.2633743l1.6281853-6.2207718h1.6281853l-3.4947128 12.3313065h-1.6654282l-1.555191-6.421875c-.382843-1.5730667-.639061-2.7796783-.8044128-4.0250244h-.0357513c-.2204666 1.2259827-.4945641 2.434082-.9518852 4.0250244l-1.7562943 6.421875h-1.6654283z"/><path d="m65.9723892 74.8362808-3.1282654-12.3313065h1.6833038l1.464325 6.2386475c.3649597 1.5373154.6941757 3.0746307.9146423 4.2633743h.0357513c.2011032-1.2259827.585434-2.6888199 1.0070038-4.28125l1.6460648-6.2207718h1.6654205l1.5000763 6.2580109c.3470917 1.4628372.6763 2.9271622.8595276 4.2261353h.0357513c.256218-1.3540878.6047974-2.726059.9891281-4.2633743l1.6281891-6.2207718h1.6281815l-3.4947128 12.3313065h-1.6654282l-1.555191-6.421875c-.382843-1.5730667-.639061-2.7796783-.8044128-4.0250244h-.0357514c-.2204666 1.2259827-.4945602 2.434082-.9518814 4.0250244l-1.7563019 6.421875h-1.6654205z"/><path d="m81.7507401 74.8362808-3.1282578-12.3313065h1.6832962l1.464325 6.2386475c.3649673 1.5373154.6941757 3.0746307.91465 4.2633743h.0357513c.2011032-1.2259827.5854263-2.6888199 1.0069962-4.28125l1.6460648-6.2207718h1.6654282l1.5000763 6.2580109c.347084 1.4628372.6763 2.9271622.8595276 4.2261353h.0357513c.256218-1.3540878.6047974-2.726059.9891205-4.2633743l1.6281891-6.2207718h1.6281891l-3.4947205 12.3313065h-1.6654282l-1.555191-6.421875c-.3828354-1.5730667-.639061-2.7796783-.8044052-4.0250244h-.0357513c-.2204742 1.2259827-.4945679 2.434082-.951889 4.0250244l-1.7562943 6.421875h-1.6654283z"/><path d="m93.7796478 73.8843994c0-.6763.4573212-1.1514969 1.0978699-1.1514969.639061 0 1.0785065.4751968 1.0785065 1.1514969 0 .6584244-.4200821 1.1529846-1.0978699 1.1529846-.6405487 0-1.0785065-.4945602-1.0785065-1.1529846z"/><path d="m89.865654 81.616127-19.865654-4.2235947 4.223587 19.865654 3.3117295-6.7547531 11.0171814 11.0171814 5.5755844-5.5755844-11.0171814-11.0171814z"/></g></svg>